<?xml version="1.0" encoding="UTF-8"?>
<svg id="Layer_2" data-name="Layer 2" xmlns="http://www.w3.org/2000/svg" viewBox="0 0 32 32">
  <defs>
    <style>
      .cls-1 {
        fill: #0d5dde;
        fill-rule: evenodd;
      }

      .cls-2 {
        fill: #07e4e0;
      }

      .cls-3 {
        fill: none;
      }
    </style>
  </defs>
  <g id="Layer_1-2" data-name="Layer 1">
    <g>
      <rect class="cls-3" width="32" height="32"/>
      <g>
        <path id="Path_1" data-name="Path 1" class="cls-2" d="m16,3.2l16,9.61v6.38l-16,9.61L0,19.19v-6.38L16,3.2Z"/>
        <path id="Path_2" data-name="Path 2" class="cls-1" d="m0,12.81L16,3.2l16,9.61v6.38l-16,9.61L0,19.19v-6.38Zm16,11.92l12.61-7.57v-2.31h0s-12.61,7.57-12.61,7.57L3.39,14.84h0v2.31l12.61,7.57Zm0-5.84l9.67-5.8-2.35-1.41-7.31,4.39-7.31-4.39-2.35,1.41,9.67,5.8Zm0-6.36l4.37-2.62-4.37-2.62-4.37,2.62,4.37,2.62Z"/>
      </g>
    </g>
  </g>
</svg>